<svg xmlns="http://www.w3.org/2000/svg" version="1.1" xmlns:xlink="http://www.w3.org/1999/xlink" xmlns:svgjs="http://svgjs.dev/svgjs" width="1000" height="1000" viewBox="0 0 1000 1000"><rect width="1000" height="1000" fill="#00ffef"></rect><g transform="matrix(0.7,0,0,0.7,150,281.25)"><svg viewBox="0 0 512 320" data-background-color="#00ffef" preserveAspectRatio="xMidYMid meet" height="625" width="1000" xmlns="http://www.w3.org/2000/svg" xmlns:xlink="http://www.w3.org/1999/xlink"><g id="tight-bounds" transform="matrix(1,0,0,1,0,0)"><svg viewBox="0 0 512 320" height="320" width="512"><g><svg></svg></g><g><svg viewBox="0 0 512 320" height="320" width="512"><g><path xmlns="http://www.w3.org/2000/svg" d="M96 320l0-320 320 0 0 320z" fill="#010c80" fill-rule="nonzero" stroke="none" stroke-width="1" stroke-linecap="butt" stroke-linejoin="miter" stroke-miterlimit="10" stroke-dasharray="" stroke-dashoffset="0" font-family="none" font-weight="none" font-size="none" text-anchor="none" style="mix-blend-mode: normal" data-fill-palette-color="tertiary"></path></g><g transform="matrix(1,0,0,1,140.8,114.64684528954191)"><svg viewBox="0 0 230.4 90.70630942091616" height="90.70630942091616" width="230.4"><g><svg viewBox="0 0 230.4 90.70630942091616" height="90.70630942091616" width="230.4"><g><svg viewBox="0 0 230.4 90.70630942091616" height="90.70630942091616" width="230.4"><g><svg viewBox="0 0 230.4 90.70630942091616" height="90.70630942091616" width="230.4"><g id="textblocktransform"><svg viewBox="0 0 230.4 90.70630942091616" height="90.70630942091616" width="230.4" id="textblock"><g><svg viewBox="0 0 230.4 90.70630942091616" height="90.70630942091616" width="230.4"><g transform="matrix(1,0,0,1,0,0)"><svg width="230.4" viewBox="3.9000000953674316 -35.04999923706055 115.68999481201172 45.54999923706055" height="90.70630942091616" data-palette-color="#00ffef"><path d="M13.3-35.05Q18.95-35.05 21.93-31.95 24.9-28.85 24.9-23.7L24.9-23.7 24.9-10Q24.9 0 14.3 0L14.3 0 3.9 0 3.9-35.05 13.3-35.05ZM6.15-2.05L13.6-2.05Q17.45-2.05 20.05-3.58 22.65-5.1 22.65-9.85L22.65-9.85 22.65-23.95Q22.65-27.05 21.38-29.08 20.1-31.1 18.07-32.02 16.05-32.95 13.8-32.95L13.8-32.95 6.15-32.95 6.15-2.05ZM32.85-25.05L32.85-8.4Q32.85-4.95 34.7-3.23 36.55-1.5 40-1.5L40-1.5Q43.2-1.5 45.1-3.18 47-4.85 47-8.15L47-8.15 47-25.05 49.25-25.05 49.25 0 47.05 0 47.2-2.95Q46-1.3 44.07-0.38 42.15 0.55 40 0.55L40 0.55Q30.6 0.55 30.6-8.65L30.6-8.65 30.6-25.05 32.85-25.05ZM53.5-15.8Q53.5-20.55 55.92-23.08 58.35-25.6 62.9-25.6L62.9-25.6Q67.25-25.6 69.7-22.98 72.15-20.35 72.15-15.8L72.15-15.8 72.15-9.2Q72.15-5 69.84-2.25 67.55 0.5 62.9 0.5L62.9 0.5Q58.25 0.5 55.87-2.27 53.5-5.05 53.5-9.2L53.5-9.2 53.5-15.8ZM55.75-8.85Q55.75-5.65 57.62-3.58 59.5-1.5 62.9-1.5L62.9-1.5Q66.3-1.5 68.09-3.55 69.9-5.6 69.9-8.85L69.9-8.85 69.9-15.85Q69.9-19.75 67.97-21.65 66.05-23.55 62.9-23.55L62.9-23.55Q59.65-23.55 57.7-21.68 55.75-19.8 55.75-15.85L55.75-15.85 55.75-8.85ZM79.34-25.05L79.34-23.7Q80.69-24.55 82.52-25 84.34-25.45 86.29-25.45L86.29-25.45Q89.34-25.45 91.29-24.5L91.29-24.5Q95.54-22.55 95.54-17.3L95.54-17.3 95.54 0 93.34 0 93.34-17.2Q93.34-20.45 91.34-21.95 89.34-23.45 86.29-23.45L86.29-23.45Q84.54-23.45 82.69-22.98 80.84-22.5 79.34-21.7L79.34-21.7 79.34 0 77.09 0 77.09-25.05 79.34-25.05ZM117.34-25.05L119.59-25.05 119.59 3.2Q119.59 6.2 118.34 7.9 117.09 9.6 114.24 10.5L114.24 10.5 113.64 8.75Q115.44 8.05 116.39 6.75 117.34 5.45 117.34 3.15L117.34 3.15 117.34-3.25Q114.99 0.6 110.04 0.6L110.04 0.6Q105.64 0.6 103.19-1.8 100.74-4.2 100.74-8.8L100.74-8.8 100.74-16.25Q100.74-20.65 103.34-23.08 105.94-25.5 110.29-25.5L110.29-25.5Q115.19-25.5 117.49-22.05L117.49-22.05 117.34-25.05ZM102.99-8.35Q102.99-5.05 104.87-3.28 106.74-1.5 110.04-1.5L110.04-1.5Q111.89-1.5 113.57-2.25 115.24-3 116.29-4.58 117.34-6.15 117.34-8.45L117.34-8.45 117.34-17.7Q117.04-20.65 114.99-22.05 112.94-23.45 110.14-23.45L110.14-23.45Q107.34-23.45 105.17-21.73 102.99-20 102.99-16L102.99-16 102.99-8.35Z" opacity="1" transform="matrix(1,0,0,1,0,0)" fill="#00ffef" class="undefined-text-0" data-fill-palette-color="quaternary" id="text-0"></path></svg></g></svg></g></svg></g></svg></g><g></g></svg></g></svg></g></svg></g></svg></g><defs></defs></svg><rect width="512" height="320" fill="none" stroke="none" visibility="hidden"></rect></g></svg></g></svg>